<svg width="77" height="21" viewBox="0 0 77 21" fill="none" xmlns="http://www.w3.org/2000/svg">
<g opacity="0.25">
<path d="M77 0.419434V20.2904H68.6304V0.419434H77ZM66.1196 0.419434V20.2904H61.9348V0.419434H66.1196ZM60.2609 0.419434V20.2904H58.587V0.419434H60.2609ZM56.913 0.419434V20.2904H51.8913V0.419434H56.913ZM50.2174 0.419434V20.2904H48.5435V0.419434H50.2174ZM45.1957 0.419434V20.2904H43.5217V0.419434H45.1957ZM41.0109 0.419434V20.2904H39.337V0.419434H41.0109ZM37.663 0.419434V20.2904H35.9891V0.419434H37.663ZM32.6413 0.419434V20.2904H25.9457V0.419434H32.6413ZM23.4348 0.419434V20.2904H18.413V0.419434H23.4348ZM15.0652 0.419434V20.2904H13.3913V0.419434H15.0652ZM11.7174 0.419434V20.2904H8.36957V0.419434H11.7174ZM6.69565 0.419434V20.2904H0V0.419434H6.69565Z" fill="white"/>
</g>
</svg>
