<svg width="36" height="36" viewBox="0 0 36 36" fill="none" xmlns="http://www.w3.org/2000/svg">
<g opacity="0.25">
<path d="M22.3805 17.6289C22.4239 17.672 22.4762 17.7066 22.5342 17.73C22.5917 17.7534 22.653 17.766 22.7143 17.766C22.7755 17.766 22.8368 17.7534 22.8943 17.73C22.9519 17.7061 23.0042 17.672 23.048 17.6289C23.5218 17.1581 24.2596 16.8885 25.0714 16.8885C25.8832 16.8885 26.621 17.1581 27.0948 17.6289C27.1381 17.672 27.1905 17.7066 27.2485 17.73C27.306 17.7534 27.3673 17.766 27.4285 17.766C27.4898 17.766 27.5511 17.7534 27.6086 17.73C27.7241 17.6827 27.8161 17.5915 27.8637 17.4768C27.8872 17.4197 27.9 17.3589 27.9 17.298C27.9 12.0368 23.7109 7.74055 18.4714 7.49392V6.76805C18.4714 6.50924 18.2602 6.30005 18 6.30005C17.7397 6.30005 17.5285 6.50924 17.5285 6.76805V7.49392C12.2891 7.74055 8.09998 12.0368 8.09998 17.298C8.09998 17.3589 8.1127 17.4197 8.13628 17.4768C8.18389 17.5915 8.27582 17.6827 8.39132 17.73C8.50635 17.7773 8.63646 17.7773 8.75149 17.73C8.809 17.7061 8.86133 17.672 8.90518 17.6289C9.37896 17.1581 10.1167 16.8885 10.9285 16.8885C11.7403 16.8885 12.4781 17.1581 12.9519 17.6289C12.9953 17.672 13.0476 17.7066 13.1056 17.73C13.1631 17.7534 13.2244 17.766 13.2857 17.766C13.347 17.766 13.4083 17.7534 13.4658 17.73C13.5238 17.7061 13.5756 17.672 13.6195 17.6289C14.3733 16.8811 15.8451 16.3971 17.5285 16.3195V27.828C17.5285 28.8605 18.3743 29.7 19.4143 29.7C20.4542 29.7 21.3 28.8605 21.3 27.828V26.424C21.3 26.1652 21.0888 25.956 20.8285 25.956C20.5683 25.956 20.3571 26.1652 20.3571 26.424V27.828C20.3571 28.3443 19.9342 28.764 19.4143 28.764C18.8943 28.764 18.4714 28.3443 18.4714 27.828V16.3195C20.1549 16.3971 21.6271 16.8806 22.3805 17.6289ZM26.9071 16.3672C25.7696 15.8079 24.2822 15.8229 23.1607 16.4079C22.9844 13.0687 21.7983 10.4404 19.6297 8.56096C23.4916 9.26951 26.4937 12.4388 26.9071 16.3672ZM12.8388 16.4079C11.7177 15.8234 10.2299 15.8084 9.09233 16.3672C9.50625 12.4388 12.5083 9.26951 16.3698 8.56096C14.2012 10.4404 13.0151 13.0687 12.8388 16.4079ZM18 15.3675C16.3443 15.3675 14.8504 15.7242 13.7878 16.3433C13.9942 12.8038 15.3793 10.2298 18 8.50058C20.6206 10.2298 22.0057 12.8038 22.2122 16.3433C21.1496 15.7242 19.6556 15.3675 18 15.3675Z" fill="white"/>
<rect x="0.5" y="0.5" width="35" height="35" rx="17.5" stroke="white"/>
</g>
</svg>
