<svg width="30" height="30" viewBox="0 0 30 30" fill="none" xmlns="http://www.w3.org/2000/svg">
<path d="M16.8 9.375H19.4878C19.7691 9.375 19.9098 9.375 20.0421 9.40608C20.1595 9.43364 20.2716 9.4791 20.3745 9.54078C20.4906 9.61035 20.59 9.70764 20.7889 9.90221L25.4611 14.4728C25.66 14.6674 25.7594 14.7646 25.8305 14.8782C25.8936 14.9788 25.9401 15.0886 25.9682 15.2034C26 15.3328 26 15.4704 26 15.7456V18.9375C26 19.4617 26 19.7238 25.9125 19.9305C25.7957 20.2062 25.5719 20.4252 25.2901 20.5394V20.5394C25.2604 20.5514 25.2456 20.5574 25.1348 20.5754C24.8276 20.6255 24.5184 20.5315 24.2911 20.3189C24.2091 20.2423 24.0721 20.0401 23.7982 19.6357C23.2834 18.876 22.4015 18.375 21.4 18.375M16.8 9.375V20.625M16.8 9.375C16.8 8.11488 16.8 7.70982 16.5493 7.22852C16.3288 6.80516 15.977 6.46095 15.5442 6.24524C15.0522 6 14.4081 6 13.12 6L6.68 6C5.39188 6 4.74782 6 4.25582 6.24524C3.82305 6.46095 3.47119 6.80516 3.25069 7.22852C3 7.70982 3 8.33988 3 9.6L3 18.375C3 19.6176 4.02975 20.625 5.3 20.625M18.5825 20.625H16.8M18.5825 20.625C18.6999 20.0593 18.9908 19.5553 19.3985 19.1684M18.5825 20.625C18.665 20.2365 18.9158 19.6467 19.3985 19.1684M16.8 20.625H12.2M12.2 20.625C12.2 22.489 10.6554 24 8.75 24C6.84462 24 5.3 22.489 5.3 20.625M12.2 20.625C12.2 18.761 10.6554 17.25 8.75 17.25C6.84462 17.25 5.3 18.761 5.3 20.625M21.4 18.375C22.9878 18.375 24.275 19.6342 24.275 21.1875C24.275 22.7408 22.9878 24 21.4 24C19.8122 24 18.525 22.7408 18.525 21.1875C18.525 20.3953 18.8598 19.6796 19.3985 19.1684M21.4 18.375C20.4978 18.375 19.8477 18.7235 19.3985 19.1684M21.4 18.375C20.622 18.375 19.9161 18.6773 19.3985 19.1684" stroke="white" stroke-linecap="round" stroke-linejoin="round"/>
</svg>
