<svg width="24" height="24" viewBox="0 0 24 24" fill="none" xmlns="http://www.w3.org/2000/svg">
<path fill-rule="evenodd" clip-rule="evenodd" d="M8.57143 4C7.94025 4 7.42857 4.51167 7.42857 5.14286V5.28571C7.42857 5.838 6.98086 6.28571 6.42857 6.28571H5.14286C4.51167 6.28571 4 6.79739 4 7.42857V18.8571C4 19.4883 4.51168 20 5.14286 20H18.8571C19.4883 20 20 19.4883 20 18.8571V7.42857C20 6.79739 19.4883 6.28571 18.8571 6.28571H17.5714C17.0191 6.28571 16.5714 5.838 16.5714 5.28571V5.14286C16.5714 4.51167 16.0598 4 15.4286 4C14.7974 4 14.2857 4.51167 14.2857 5.14286V5.28571C14.2857 5.838 13.838 6.28571 13.2857 6.28571H10.7143C10.162 6.28571 9.71429 5.838 9.71429 5.28571V5.14286C9.71429 4.51167 9.20261 4 8.57143 4ZM7.28571 11.8571C7.28571 11.3049 7.73343 10.8571 8.28572 10.8571H15.7143C16.2666 10.8571 16.7143 11.3049 16.7143 11.8571V15.7143C16.7143 16.2666 16.2666 16.7143 15.7143 16.7143H8.28571C7.73343 16.7143 7.28571 16.2666 7.28571 15.7143V11.8571Z" fill="black" fill-opacity="0.2"/>
<path d="M16.7143 11.8571C16.7143 11.3049 16.2666 10.8571 15.7143 10.8571H8.28572C7.73343 10.8571 7.28571 11.3049 7.28571 11.8571V15.7143C7.28571 16.2666 7.73343 16.7143 8.28571 16.7143H15.7143C16.2666 16.7143 16.7143 16.2666 16.7143 15.7143V11.8571Z" fill="black"/>
</svg>
