<svg width="36" height="36" viewBox="0 0 36 36" fill="none" xmlns="http://www.w3.org/2000/svg">
<g opacity="0.25">
<path d="M11.404 7.36353H21.7C21.9325 7.36353 22.1213 7.5424 22.1213 7.76278C22.1213 7.85237 22.0901 7.93505 22.0373 8.0017L20.8081 9.8216L21.7597 10.4048C21.9193 10.5016 21.9863 10.6842 21.9368 10.849L21.1809 13.8019L23.4888 10.3856L22.5355 9.80022C22.3823 9.70591 22.3156 9.53238 22.3561 9.37299L22.7923 7.66909C22.8387 7.48707 23.0108 7.36478 23.2002 7.36478L24.5963 7.36353L24.7333 7.3695C25.1396 7.40251 25.4995 7.57887 25.7586 7.84231C26.0219 8.11079 26.1818 8.47011 26.1818 8.86245L26.1758 8.98631C26.139 9.46227 26.1088 9.93634 26.0787 10.4265C25.7626 15.4856 25.3387 22.2456 18.4216 22.5084V28.6559H21.2599C21.4924 28.6559 21.6811 28.8348 21.6811 29.0552C21.6811 29.2756 21.4924 29.4544 21.2599 29.4544H14.7408C14.5083 29.4544 14.3196 29.2756 14.3196 29.0552C14.3196 28.8348 14.5083 28.6559 14.7408 28.6559H17.5791V22.5084C10.67 22.2434 10.2381 15.4319 9.91934 10.3859C9.88916 9.90711 9.85964 9.44561 9.82315 8.97657L9.81818 8.86245C9.81818 8.47011 9.97805 8.1111 10.2417 7.84231C10.5034 7.57541 10.8693 7.39811 11.2819 7.36856L11.404 7.36353ZM20.9315 8.16203L11.3476 8.1636C11.1509 8.17712 10.9791 8.26043 10.8567 8.38492C10.735 8.5091 10.6607 8.67729 10.6607 8.86245L10.6623 8.91747C10.6958 9.34753 10.7267 9.83512 10.7585 10.3394C11.0633 15.1675 11.4776 21.7187 18.0003 21.7187C24.5307 21.7187 24.9373 15.219 25.2395 10.3799C25.2713 9.8653 25.3028 9.36796 25.337 8.92627L25.3393 8.86245C25.3393 8.67729 25.265 8.50878 25.1436 8.38492C25.0229 8.26231 24.8547 8.17995 24.6657 8.16423C24.3008 8.14663 23.8988 8.16203 23.5299 8.16203L23.2424 9.28622C23.5863 9.50031 23.9446 9.73012 24.2945 9.93194C24.4895 10.0505 24.5462 10.2972 24.4212 10.4821L20.5344 16.236C20.4402 16.3747 20.2605 16.4486 20.082 16.4077C19.8568 16.3561 19.7185 16.1408 19.7729 15.9273L21.0545 10.9213C20.7059 10.7091 20.3547 10.4783 20.0024 10.2752C19.8074 10.1567 19.7507 9.90994 19.8757 9.72509L20.9315 8.16203Z" fill="white"/>
<rect x="0.5" y="0.5" width="35" height="35" rx="17.5" stroke="white"/>
</g>
</svg>
