<svg width="36" height="36" viewBox="0 0 36 36" fill="none" xmlns="http://www.w3.org/2000/svg">
<g opacity="0.25">
<path d="M17.035 28.2148C16.1648 28.3308 15.2785 28.3055 14.4137 28.1382C13.2991 27.9225 12.2482 27.4762 11.3343 26.8313C10.4206 26.1865 9.66627 25.359 9.12339 24.4076C8.58054 23.4563 8.26194 22.4037 8.18911 21.3235L8.16711 20.997H7.83991H7.09688L9.86902 17.6272L12.6348 20.9966H11.9318H11.5564L11.5827 21.3711C11.6994 23.03 12.3655 24.608 13.4814 25.8761C14.4289 26.9527 15.6584 27.7581 17.035 28.2148ZM6.85301 21.2934L6.85521 21.2908L6.85301 21.2934Z" stroke="white" stroke-width="0.7"/>
<path d="M28.0885 13.9741L28.0891 13.9752C29.0506 15.6114 29.3431 17.5477 28.9076 19.3891C28.472 21.2305 27.3407 22.8396 25.7433 23.8868L25.4655 24.069L25.6328 24.3559L25.9871 24.9632L21.6941 24.3509L23.3067 20.3773L23.6484 20.9611L23.8354 21.2805L24.1439 21.076C25.5381 20.1517 26.5983 18.812 27.1698 17.251C27.6573 15.9191 27.7671 14.4858 27.4945 13.1045C27.7129 13.3799 27.9114 13.6705 28.0885 13.9741Z" stroke="white" stroke-width="0.7"/>
<path d="M8.74385 13.086C9.06843 12.2046 9.53526 11.3894 10.1241 10.6779C10.8606 9.78797 11.7698 9.08219 12.787 8.60862C13.804 8.1351 14.9051 7.90482 16.0131 7.9331C17.1211 7.96138 18.2107 8.24757 19.2056 8.77261L19.5115 8.934L19.6765 8.63015L20.0382 7.96438L21.6827 12.3424L17.3002 13.0124L17.6711 12.3272L17.8403 12.0147L17.5253 11.8503C16.0003 11.0541 14.2744 10.7956 12.5997 11.114C11.1628 11.3873 9.831 12.0725 8.74385 13.086ZM8.18935 13.6682L8.18937 13.6682L8.18935 13.6682Z" stroke="white" stroke-width="0.7"/>
<rect x="0.5" y="0.5" width="35" height="35" rx="17.5" stroke="white"/>
</g>
</svg>
