<svg width="72" height="50" viewBox="0 0 72 50" fill="none" xmlns="http://www.w3.org/2000/svg">
<path fill-rule="evenodd" clip-rule="evenodd" d="M24 9.19922V13.3406C24 19.7771 29.1891 24.9662 35.6256 24.9662C42.0621 24.9662 47.2513 19.7272 47.2513 13.3406V9.19922H46.2534V13.3406C46.2534 19.2283 41.4634 23.9683 35.6256 23.9683C29.7879 23.9683 25.0478 19.2282 25.0478 13.3406L25.0478 9.19922H24Z" fill="#B0B0B0"/>
<path d="M36.1006 1C36.1006 0.723858 35.8767 0.5 35.6006 0.5C35.3244 0.5 35.1006 0.723858 35.1006 1H36.1006ZM35.247 18.3536C35.4423 18.5488 35.7589 18.5488 35.9541 18.3536L39.1361 15.1716C39.3314 14.9763 39.3314 14.6597 39.1361 14.4645C38.9409 14.2692 38.6243 14.2692 38.429 14.4645L35.6006 17.2929L32.7722 14.4645C32.5769 14.2692 32.2603 14.2692 32.0651 14.4645C31.8698 14.6597 31.8698 14.9763 32.0651 15.1716L35.247 18.3536ZM35.1006 1V18H36.1006V1H35.1006Z" fill="#B0B0B0"/>
<path d="M5.47754 40.0381C5.47754 39.8558 5.43652 39.6872 5.35449 39.5322C5.27702 39.3727 5.11523 39.2292 4.86914 39.1016C4.6276 38.9694 4.26302 38.8555 3.77539 38.7598C3.36523 38.6732 2.99382 38.5706 2.66113 38.4521C2.33301 38.3337 2.05273 38.1901 1.82031 38.0215C1.59245 37.8529 1.41699 37.6546 1.29395 37.4268C1.1709 37.1989 1.10938 36.9323 1.10938 36.627C1.10938 36.3353 1.17318 36.0596 1.30078 35.7998C1.43294 35.54 1.61751 35.3099 1.85449 35.1094C2.09603 34.9089 2.38542 34.7516 2.72266 34.6377C3.0599 34.5238 3.43587 34.4668 3.85059 34.4668C4.44303 34.4668 4.94889 34.5716 5.36816 34.7812C5.78743 34.9909 6.10872 35.2712 6.33203 35.6221C6.55534 35.9684 6.66699 36.3535 6.66699 36.7773H5.40234C5.40234 36.5723 5.34082 36.374 5.21777 36.1826C5.09928 35.9867 4.92383 35.8249 4.69141 35.6973C4.46354 35.5697 4.18327 35.5059 3.85059 35.5059C3.49967 35.5059 3.21484 35.5605 2.99609 35.6699C2.7819 35.7747 2.62467 35.9092 2.52441 36.0732C2.42871 36.2373 2.38086 36.4105 2.38086 36.5928C2.38086 36.7295 2.40365 36.8525 2.44922 36.9619C2.49935 37.0667 2.58594 37.1647 2.70898 37.2559C2.83203 37.3424 3.00521 37.4245 3.22852 37.502C3.45182 37.5794 3.73665 37.6569 4.08301 37.7344C4.68913 37.8711 5.18815 38.0352 5.58008 38.2266C5.97201 38.418 6.26367 38.6527 6.45508 38.9307C6.64648 39.2087 6.74219 39.5459 6.74219 39.9424C6.74219 40.266 6.67383 40.5622 6.53711 40.8311C6.40495 41.0999 6.21126 41.3324 5.95605 41.5283C5.7054 41.7197 5.40462 41.8701 5.05371 41.9795C4.70736 42.0843 4.31771 42.1367 3.88477 42.1367C3.23307 42.1367 2.68164 42.0205 2.23047 41.7881C1.7793 41.5557 1.4375 41.2549 1.20508 40.8857C0.972656 40.5166 0.856445 40.127 0.856445 39.7168H2.12793C2.14616 40.0632 2.24642 40.3389 2.42871 40.5439C2.611 40.7445 2.83431 40.888 3.09863 40.9746C3.36296 41.0566 3.625 41.0977 3.88477 41.0977C4.23112 41.0977 4.52051 41.0521 4.75293 40.9609C4.98991 40.8698 5.16992 40.7445 5.29297 40.585C5.41602 40.4255 5.47754 40.2432 5.47754 40.0381ZM11.3633 41.0977C11.6641 41.0977 11.9421 41.0361 12.1973 40.9131C12.4525 40.79 12.6621 40.6214 12.8262 40.4072C12.9902 40.1885 13.0837 39.9401 13.1064 39.6621H14.3096C14.2868 40.0996 14.1387 40.5075 13.8652 40.8857C13.5964 41.2594 13.2432 41.5625 12.8057 41.7949C12.3682 42.0228 11.8874 42.1367 11.3633 42.1367C10.8073 42.1367 10.3219 42.0387 9.90723 41.8428C9.49707 41.6468 9.15527 41.3779 8.88184 41.0361C8.61296 40.6943 8.41016 40.3024 8.27344 39.8604C8.14128 39.4137 8.0752 38.9421 8.0752 38.4453V38.1582C8.0752 37.6615 8.14128 37.1921 8.27344 36.75C8.41016 36.3034 8.61296 35.9092 8.88184 35.5674C9.15527 35.2256 9.49707 34.9567 9.90723 34.7607C10.3219 34.5648 10.8073 34.4668 11.3633 34.4668C11.9421 34.4668 12.4479 34.5853 12.8809 34.8223C13.3138 35.0547 13.6533 35.3737 13.8994 35.7793C14.1501 36.1803 14.2868 36.6361 14.3096 37.1465H13.1064C13.0837 36.8411 12.9971 36.5654 12.8467 36.3193C12.7008 36.0732 12.5003 35.8773 12.2451 35.7314C11.9945 35.5811 11.7005 35.5059 11.3633 35.5059C10.9759 35.5059 10.6501 35.5833 10.3857 35.7383C10.126 35.8887 9.91862 36.0938 9.76367 36.3535C9.61328 36.6087 9.50391 36.8936 9.43555 37.208C9.37174 37.5179 9.33984 37.8346 9.33984 38.1582V38.4453C9.33984 38.7689 9.37174 39.0879 9.43555 39.4023C9.49935 39.7168 9.60645 40.0016 9.75684 40.2568C9.91178 40.512 10.1191 40.7171 10.3789 40.8721C10.6432 41.0225 10.9714 41.0977 11.3633 41.0977ZM16.9961 35.7656V42H15.7314V34.6035H16.9619L16.9961 35.7656ZM19.3066 34.5625L19.2998 35.7383C19.195 35.7155 19.0947 35.7018 18.999 35.6973C18.9079 35.6882 18.8031 35.6836 18.6846 35.6836C18.3929 35.6836 18.1354 35.7292 17.9121 35.8203C17.6888 35.9115 17.4997 36.0391 17.3447 36.2031C17.1898 36.3672 17.0667 36.5632 16.9756 36.791C16.889 37.0143 16.832 37.2604 16.8047 37.5293L16.4492 37.7344C16.4492 37.2878 16.4925 36.8685 16.5791 36.4766C16.6702 36.0846 16.8092 35.7383 16.9961 35.4375C17.1829 35.1322 17.4199 34.8952 17.707 34.7266C17.9987 34.5534 18.3451 34.4668 18.7461 34.4668C18.8372 34.4668 18.9421 34.4782 19.0605 34.501C19.179 34.5192 19.2611 34.5397 19.3066 34.5625ZM20.0039 38.3838V38.2266C20.0039 37.6934 20.0814 37.1989 20.2363 36.7432C20.3913 36.2829 20.6146 35.8841 20.9062 35.5469C21.1979 35.2051 21.5511 34.9408 21.9658 34.7539C22.3805 34.5625 22.8454 34.4668 23.3604 34.4668C23.8799 34.4668 24.347 34.5625 24.7617 34.7539C25.181 34.9408 25.5365 35.2051 25.8281 35.5469C26.1243 35.8841 26.3499 36.2829 26.5049 36.7432C26.6598 37.1989 26.7373 37.6934 26.7373 38.2266V38.3838C26.7373 38.917 26.6598 39.4115 26.5049 39.8672C26.3499 40.3229 26.1243 40.7217 25.8281 41.0635C25.5365 41.4007 25.1833 41.665 24.7686 41.8564C24.3584 42.0433 23.8936 42.1367 23.374 42.1367C22.8545 42.1367 22.3874 42.0433 21.9727 41.8564C21.5579 41.665 21.2025 41.4007 20.9062 41.0635C20.6146 40.7217 20.3913 40.3229 20.2363 39.8672C20.0814 39.4115 20.0039 38.917 20.0039 38.3838ZM21.2686 38.2266V38.3838C21.2686 38.7529 21.3118 39.1016 21.3984 39.4297C21.485 39.7533 21.6149 40.0404 21.7881 40.291C21.9658 40.5417 22.1868 40.7399 22.4512 40.8857C22.7155 41.027 23.0231 41.0977 23.374 41.0977C23.7204 41.0977 24.0234 41.027 24.2832 40.8857C24.5475 40.7399 24.7663 40.5417 24.9395 40.291C25.1126 40.0404 25.2425 39.7533 25.3291 39.4297C25.4202 39.1016 25.4658 38.7529 25.4658 38.3838V38.2266C25.4658 37.862 25.4202 37.5179 25.3291 37.1943C25.2425 36.8662 25.1104 36.5768 24.9326 36.3262C24.7594 36.071 24.5407 35.8704 24.2764 35.7246C24.0166 35.5788 23.7113 35.5059 23.3604 35.5059C23.014 35.5059 22.7087 35.5788 22.4443 35.7246C22.1846 35.8704 21.9658 36.071 21.7881 36.3262C21.6149 36.5768 21.485 36.8662 21.3984 37.1943C21.3118 37.5179 21.2686 37.862 21.2686 38.2266ZM29.6973 31.5V42H28.4258V31.5H29.6973ZM33.1016 31.5V42H31.8301V31.5H33.1016ZM43.2666 40.5645V31.5H44.5381V42H43.376L43.2666 40.5645ZM38.29 38.3838V38.2402C38.29 37.6751 38.3584 37.1624 38.4951 36.7021C38.6364 36.2373 38.8346 35.8385 39.0898 35.5059C39.3496 35.1732 39.6572 34.918 40.0127 34.7402C40.3727 34.5579 40.7738 34.4668 41.2158 34.4668C41.6807 34.4668 42.0863 34.5488 42.4326 34.7129C42.7835 34.8724 43.0798 35.1071 43.3213 35.417C43.5674 35.7223 43.7611 36.0915 43.9023 36.5244C44.0436 36.9574 44.1416 37.4473 44.1963 37.9941V38.623C44.1462 39.1654 44.0482 39.653 43.9023 40.0859C43.7611 40.5189 43.5674 40.888 43.3213 41.1934C43.0798 41.4987 42.7835 41.7334 42.4326 41.8975C42.0817 42.057 41.6715 42.1367 41.2021 42.1367C40.7692 42.1367 40.3727 42.0433 40.0127 41.8564C39.6572 41.6696 39.3496 41.4076 39.0898 41.0703C38.8346 40.7331 38.6364 40.3366 38.4951 39.8809C38.3584 39.4206 38.29 38.9215 38.29 38.3838ZM39.5615 38.2402V38.3838C39.5615 38.7529 39.598 39.0993 39.6709 39.4229C39.7484 39.7464 39.8669 40.0312 40.0264 40.2773C40.1859 40.5234 40.3887 40.7171 40.6348 40.8584C40.8809 40.9951 41.1748 41.0635 41.5166 41.0635C41.9359 41.0635 42.2799 40.9746 42.5488 40.7969C42.8223 40.6191 43.041 40.3844 43.2051 40.0928C43.3691 39.8011 43.4967 39.4844 43.5879 39.1426V37.4951C43.5332 37.2445 43.4535 37.0029 43.3486 36.7705C43.2484 36.5335 43.1162 36.3239 42.9521 36.1416C42.7926 35.9548 42.5944 35.8066 42.3574 35.6973C42.125 35.5879 41.8493 35.5332 41.5303 35.5332C41.1839 35.5332 40.8854 35.6061 40.6348 35.752C40.3887 35.8932 40.1859 36.0892 40.0264 36.3398C39.8669 36.5859 39.7484 36.873 39.6709 37.2012C39.598 37.5247 39.5615 37.8711 39.5615 38.2402ZM46.1719 38.3838V38.2266C46.1719 37.6934 46.2493 37.1989 46.4043 36.7432C46.5592 36.2829 46.7826 35.8841 47.0742 35.5469C47.3659 35.2051 47.7191 34.9408 48.1338 34.7539C48.5485 34.5625 49.0133 34.4668 49.5283 34.4668C50.0479 34.4668 50.515 34.5625 50.9297 34.7539C51.349 34.9408 51.7044 35.2051 51.9961 35.5469C52.2923 35.8841 52.5179 36.2829 52.6729 36.7432C52.8278 37.1989 52.9053 37.6934 52.9053 38.2266V38.3838C52.9053 38.917 52.8278 39.4115 52.6729 39.8672C52.5179 40.3229 52.2923 40.7217 51.9961 41.0635C51.7044 41.4007 51.3512 41.665 50.9365 41.8564C50.5264 42.0433 50.0615 42.1367 49.542 42.1367C49.0225 42.1367 48.5553 42.0433 48.1406 41.8564C47.7259 41.665 47.3704 41.4007 47.0742 41.0635C46.7826 40.7217 46.5592 40.3229 46.4043 39.8672C46.2493 39.4115 46.1719 38.917 46.1719 38.3838ZM47.4365 38.2266V38.3838C47.4365 38.7529 47.4798 39.1016 47.5664 39.4297C47.653 39.7533 47.7829 40.0404 47.9561 40.291C48.1338 40.5417 48.3548 40.7399 48.6191 40.8857C48.8835 41.027 49.1911 41.0977 49.542 41.0977C49.8883 41.0977 50.1914 41.027 50.4512 40.8857C50.7155 40.7399 50.9342 40.5417 51.1074 40.291C51.2806 40.0404 51.4105 39.7533 51.4971 39.4297C51.5882 39.1016 51.6338 38.7529 51.6338 38.3838V38.2266C51.6338 37.862 51.5882 37.5179 51.4971 37.1943C51.4105 36.8662 51.2783 36.5768 51.1006 36.3262C50.9274 36.071 50.7087 35.8704 50.4443 35.7246C50.1846 35.5788 49.8792 35.5059 49.5283 35.5059C49.182 35.5059 48.8766 35.5788 48.6123 35.7246C48.3525 35.8704 48.1338 36.071 47.9561 36.3262C47.7829 36.5768 47.653 36.8662 47.5664 37.1943C47.4798 37.5179 47.4365 37.862 47.4365 38.2266ZM56.3643 40.6875L58.2646 34.6035H59.0986L58.9346 35.8135L57 42H56.1865L56.3643 40.6875ZM55.0859 34.6035L56.7061 40.7559L56.8223 42H55.9678L53.8213 34.6035H55.0859ZM60.917 40.708L62.4619 34.6035H63.7197L61.5732 42H60.7256L60.917 40.708ZM59.2832 34.6035L61.1426 40.585L61.3545 42H60.5479L58.5586 35.7998L58.3945 34.6035H59.2832ZM66.2832 36.1826V42H65.0186V34.6035H66.2148L66.2832 36.1826ZM65.9824 38.0215L65.4561 38.001C65.4606 37.4951 65.5358 37.028 65.6816 36.5996C65.8275 36.1667 66.0326 35.7907 66.2969 35.4717C66.5612 35.1527 66.8757 34.9066 67.2402 34.7334C67.6094 34.5557 68.0173 34.4668 68.4639 34.4668C68.8285 34.4668 69.1566 34.5169 69.4482 34.6172C69.7399 34.7129 69.9883 34.8678 70.1934 35.082C70.403 35.2962 70.5625 35.5742 70.6719 35.916C70.7812 36.2533 70.8359 36.6657 70.8359 37.1533V42H69.5645V37.1396C69.5645 36.7523 69.5075 36.4424 69.3936 36.21C69.2796 35.973 69.1133 35.8021 68.8945 35.6973C68.6758 35.5879 68.4069 35.5332 68.0879 35.5332C67.7734 35.5332 67.4863 35.5993 67.2266 35.7314C66.9714 35.8636 66.7503 36.0459 66.5635 36.2783C66.3812 36.5107 66.2376 36.7773 66.1328 37.0781C66.0326 37.3743 65.9824 37.6888 65.9824 38.0215Z" fill="#B0B0B0"/>
</svg>
