<svg width="30" height="30" viewBox="0 0 30 30" fill="none" xmlns="http://www.w3.org/2000/svg">
<path d="M24.8404 9.5L15 15M15 15L5.15963 9.5M15 15L15 25.6026M25 19.5296V10.4704C25 10.088 25 9.89676 24.9439 9.72623C24.8943 9.57536 24.8132 9.43688 24.706 9.32004C24.5848 9.18797 24.4184 9.09511 24.0856 8.90939L15.8634 4.32112C15.5483 4.14527 15.3907 4.05735 15.2238 4.02288C15.0762 3.99237 14.9238 3.99237 14.7762 4.02288C14.6093 4.05735 14.4518 4.14527 14.1366 4.32112L5.91441 8.9094C5.58161 9.09511 5.41521 9.18797 5.29404 9.32004C5.18684 9.43688 5.10572 9.57537 5.05609 9.72623C5 9.89677 5 10.088 5 10.4704V19.5296C5 19.912 5 20.1032 5.05609 20.2738C5.10572 20.4246 5.18684 20.5631 5.29404 20.68C5.41521 20.812 5.58161 20.9049 5.91441 21.0906L14.1366 25.6789C14.4518 25.8547 14.6093 25.9426 14.7762 25.9771C14.9238 26.0076 15.0762 26.0076 15.2238 25.9771C15.3907 25.9426 15.5482 25.8547 15.8634 25.6789L24.0856 21.0906C24.4184 20.9049 24.5848 20.812 24.706 20.68C24.8132 20.5631 24.8943 20.4246 24.9439 20.2738C25 20.1032 25 19.912 25 19.5296Z" stroke="black" stroke-linecap="round" stroke-linejoin="round"/>
</svg>
