<svg width="543" height="149" viewBox="0 0 543 149" fill="none" xmlns="http://www.w3.org/2000/svg">
<g opacity="0.6">
<path d="M483.864 3.24488C484.058 2.61955 484.943 2.61955 485.137 3.24488L487.071 9.47621C487.159 9.75821 487.421 9.94921 487.717 9.94521L494.241 9.85921C494.896 9.85055 495.169 10.6922 494.634 11.0702L489.306 14.8355C489.064 15.0059 488.964 15.3145 489.059 15.5942L491.157 21.7725C491.368 22.3925 490.651 22.9129 490.127 22.5209L484.899 18.6165C484.663 18.4399 484.338 18.4399 484.101 18.6165L478.874 22.5209C478.349 22.9129 477.633 22.3925 477.844 21.7725L479.942 15.5942C480.037 15.3145 479.936 15.0059 479.695 14.8355L474.366 11.0702C473.831 10.6922 474.105 9.85055 474.76 9.85921L481.284 9.94521C481.579 9.94921 481.842 9.75821 481.929 9.47621L483.864 3.24488Z" fill="#FF7000"/>
</g>
<g opacity="0.6">
<path d="M59.1362 3.24488C58.9422 2.61955 58.0569 2.61955 57.8629 3.24488L55.9286 9.47621C55.8412 9.75821 55.5786 9.94921 55.2832 9.94521L48.7589 9.85921C48.1042 9.85055 47.8306 10.6922 48.3656 11.0702L53.6942 14.8355C53.9356 15.0059 54.0359 15.3145 53.9409 15.5942L51.8429 21.7725C51.6322 22.3925 52.3486 22.9129 52.8729 22.5209L58.1006 18.6165C58.3372 18.4399 58.6619 18.4399 58.8986 18.6165L64.1262 22.5209C64.6506 22.9129 65.3669 22.3925 65.1562 21.7725L63.0582 15.5942C62.9632 15.3145 63.0636 15.0059 63.3049 14.8355L68.6336 11.0702C69.1686 10.6922 68.8949 9.85055 68.2402 9.85921L61.7159 9.94521C61.4206 9.94921 61.1579 9.75821 61.0706 9.47621L59.1362 3.24488Z" fill="#FF7000"/>
</g>
<path d="M523.558 60.8026C523.845 59.8771 525.155 59.8771 525.442 60.8026L528.305 70.025C528.434 70.4423 528.823 70.725 529.26 70.7191L538.916 70.5918C539.885 70.579 540.29 71.8246 539.498 72.3841L531.612 77.9568C531.255 78.2089 531.106 78.6657 531.247 79.0796L534.352 88.2235C534.664 89.1411 533.603 89.9112 532.827 89.3311L525.091 83.5527C524.74 83.2912 524.26 83.2912 523.909 83.5527L516.173 89.3311C515.397 89.9112 514.336 89.1411 514.648 88.2235L517.753 79.0796C517.894 78.6657 517.745 78.2089 517.388 77.9568L509.502 72.3841C508.71 71.8246 509.115 70.579 510.084 70.5918L519.74 70.7191C520.177 70.725 520.566 70.4423 520.695 70.025L523.558 60.8026Z" fill="#FF7000"/>
<path d="M19.4423 60.8026C19.1552 59.8771 17.8449 59.8771 17.5577 60.8026L14.6949 70.025C14.5657 70.4423 14.1769 70.725 13.7398 70.7191L4.08382 70.5918C3.11491 70.579 2.70988 71.8246 3.50168 72.3841L11.3881 77.9568C11.7453 78.2089 11.8938 78.6657 11.7532 79.0796L8.64814 88.2235C8.33635 89.1411 9.39652 89.9112 10.1725 89.3311L17.9095 83.5527C18.2598 83.2912 18.7403 83.2912 19.0905 83.5527L26.8275 89.3311C27.6035 89.9112 28.6637 89.1411 28.3519 88.2235L25.2468 79.0796C25.1062 78.6657 25.2547 78.2089 25.6119 77.9568L33.4983 72.3841C34.2901 71.8246 33.8851 70.579 32.9162 70.5918L23.2602 70.7191C22.8231 70.725 22.4343 70.4423 22.3051 70.025L19.4423 60.8026Z" fill="#FF7000"/>
<g opacity="0.6">
<path d="M485.864 127.245C486.058 126.62 486.943 126.62 487.137 127.245L489.071 133.476C489.159 133.758 489.421 133.949 489.717 133.945L496.241 133.859C496.896 133.851 497.169 134.692 496.634 135.07L491.306 138.836C491.064 139.006 490.964 139.315 491.059 139.594L493.157 145.773C493.368 146.393 492.651 146.913 492.127 146.521L486.899 142.617C486.663 142.44 486.338 142.44 486.101 142.617L480.874 146.521C480.349 146.913 479.633 146.393 479.844 145.773L481.942 139.594C482.037 139.315 481.936 139.006 481.695 138.836L476.366 135.07C475.831 134.692 476.105 133.851 476.76 133.859L483.284 133.945C483.579 133.949 483.842 133.758 483.929 133.476L485.864 127.245Z" fill="#FF7000"/>
</g>
<g opacity="0.6">
<path d="M57.1362 127.245C56.9422 126.62 56.0569 126.62 55.8629 127.245L53.9286 133.476C53.8412 133.758 53.5786 133.949 53.2832 133.945L46.7589 133.859C46.1042 133.851 45.8306 134.692 46.3656 135.07L51.6942 138.836C51.9356 139.006 52.0359 139.315 51.9409 139.594L49.8429 145.773C49.6322 146.393 50.3486 146.913 50.8729 146.521L56.1006 142.617C56.3372 142.44 56.6619 142.44 56.8986 142.617L62.1262 146.521C62.6506 146.913 63.3669 146.393 63.1562 145.773L61.0582 139.594C60.9632 139.315 61.0636 139.006 61.3049 138.836L66.6336 135.07C67.1686 134.692 66.8949 133.851 66.2402 133.859L59.7159 133.945C59.4206 133.949 59.1579 133.758 59.0706 133.476L57.1362 127.245Z" fill="#FF7000"/>
</g>
</svg>
