<svg width="120" height="66" viewBox="0 0 120 66" fill="none" xmlns="http://www.w3.org/2000/svg">
<g opacity="0.3">
<path d="M7.88175 52.9469C7.76535 52.5717 7.23415 52.5717 7.11775 52.9469L5.95715 56.6857C5.90475 56.8549 5.74715 56.9695 5.56995 56.9671L1.65535 56.9155C1.26255 56.9103 1.09835 57.4153 1.41935 57.6421L4.61655 59.9013C4.76135 60.0035 4.82155 60.1887 4.76455 60.3565L3.50575 64.0635C3.37935 64.4355 3.80915 64.7477 4.12375 64.5125L7.26035 62.1699C7.40235 62.0639 7.59715 62.0639 7.73915 62.1699L10.8757 64.5125C11.1903 64.7477 11.6201 64.4355 11.4937 64.0635L10.2349 60.3565C10.1779 60.1887 10.2381 60.0035 10.3829 59.9013L13.5801 57.6421C13.9011 57.4153 13.7369 56.9103 13.3441 56.9155L9.42955 56.9671C9.25235 56.9695 9.09475 56.8549 9.04235 56.6857L7.88175 52.9469Z" fill="#FF7000"/>
</g>
<g opacity="0.5">
<path d="M28.509 23.5959C28.3538 23.0956 27.6455 23.0956 27.4903 23.5959L25.9429 28.581C25.873 28.8066 25.6629 28.9594 25.4266 28.9562L20.2071 28.8874C19.6834 28.8804 19.4645 29.5538 19.8925 29.8562L24.1554 32.8684C24.3485 33.0047 24.4287 33.2516 24.3527 33.4754L22.6743 38.418C22.5058 38.914 23.0789 39.3303 23.4983 39.0167L27.6805 35.8932C27.8698 35.7519 28.1295 35.7519 28.3189 35.8932L32.501 39.0167C32.9205 39.3303 33.4935 38.914 33.325 38.418L31.6466 33.4754C31.5706 33.2516 31.6509 33.0047 31.8439 32.8684L36.1069 29.8562C36.5349 29.5538 36.3159 28.8804 35.7922 28.8874L30.5727 28.9562C30.3365 28.9594 30.1263 28.8066 30.0565 28.581L28.509 23.5959Z" fill="#FF7000"/>
</g>
<g opacity="0.5">
<path d="M92.509 23.5959C92.3538 23.0956 91.6455 23.0956 91.4903 23.5959L89.9429 28.581C89.873 28.8066 89.6629 28.9594 89.4266 28.9562L84.2071 28.8874C83.6834 28.8804 83.4645 29.5538 83.8925 29.8562L88.1554 32.8684C88.3485 33.0047 88.4287 33.2516 88.3527 33.4754L86.6743 38.418C86.5058 38.914 87.0789 39.3303 87.4983 39.0167L91.6805 35.8932C91.8698 35.7519 92.1295 35.7519 92.3189 35.8932L96.501 39.0167C96.9205 39.3303 97.4935 38.914 97.325 38.418L95.6466 33.4754C95.5706 33.2516 95.6509 33.0047 95.8439 32.8684L100.107 29.8562C100.535 29.5538 100.316 28.8804 99.7922 28.8874L94.5727 28.9562C94.3365 28.9594 94.1263 28.8066 94.0565 28.581L92.509 23.5959Z" fill="#FF7000"/>
</g>
<g opacity="0.3">
<path d="M112.882 52.9469C112.765 52.5717 112.234 52.5717 112.118 52.9469L110.957 56.6857C110.905 56.8549 110.747 56.9695 110.57 56.9671L106.655 56.9155C106.263 56.9103 106.098 57.4153 106.419 57.6421L109.617 59.9013C109.761 60.0035 109.822 60.1887 109.765 60.3565L108.506 64.0635C108.379 64.4355 108.809 64.7477 109.124 64.5125L112.26 62.1699C112.402 62.0639 112.597 62.0639 112.739 62.1699L115.876 64.5125C116.19 64.7477 116.62 64.4355 116.494 64.0635L115.235 60.3565C115.178 60.1887 115.238 60.0035 115.383 59.9013L118.58 57.6421C118.901 57.4153 118.737 56.9103 118.344 56.9155L114.43 56.9671C114.252 56.9695 114.095 56.8549 114.042 56.6857L112.882 52.9469Z" fill="#FF7000"/>
</g>
<path d="M60.764 3.894C60.5312 3.1436 59.4688 3.1436 59.236 3.894L56.9148 11.3716C56.81 11.71 56.4948 11.9392 56.1404 11.9344L48.3112 11.8312C47.5256 11.8208 47.1972 12.8308 47.8392 13.2844L54.2336 17.8028C54.5232 18.0072 54.6436 18.3776 54.5296 18.7132L52.012 26.1272C51.7592 26.8712 52.6188 27.4956 53.248 27.0252L59.5212 22.34C59.8052 22.128 60.1948 22.128 60.4788 22.34L66.752 27.0252C67.3812 27.4956 68.2408 26.8712 67.988 26.1272L65.4704 18.7132C65.3564 18.3776 65.4768 18.0072 65.7664 17.8028L72.1608 13.2844C72.8028 12.8308 72.4744 11.8208 71.6888 11.8312L63.8596 11.9344C63.5052 11.9392 63.19 11.71 63.0852 11.3716L60.764 3.894Z" fill="#FF7000"/>
</svg>
