<svg width="37" height="37" viewBox="0 0 37 37" fill="none" xmlns="http://www.w3.org/2000/svg">
<path d="M19.4422 4.80258C19.1551 3.87709 17.8448 3.87709 17.5577 4.80258L14.6949 14.025C14.5656 14.4423 14.1769 14.725 13.7398 14.7191L4.08376 14.5918C3.11485 14.579 2.70982 15.8246 3.50162 16.3841L11.3881 21.9568C11.7452 22.2089 11.8937 22.6657 11.7531 23.0796L8.64808 32.2235C8.33629 33.1411 9.39646 33.9112 10.1725 33.3311L17.9094 27.5526C18.2597 27.2912 18.7402 27.2912 19.0905 27.5526L26.8274 33.3311C27.6034 33.9112 28.6636 33.1411 28.3518 32.2235L25.2468 23.0796C25.1062 22.6657 25.2547 22.2089 25.6118 21.9568L33.4983 16.3841C34.2901 15.8246 33.885 14.579 32.9161 14.5918L23.2601 14.7191C22.823 14.725 22.4343 14.4423 22.305 14.025L19.4422 4.80258Z" fill="#FF7000"/>
</svg>
