<svg width="36" height="36" viewBox="0 0 36 36" fill="none" xmlns="http://www.w3.org/2000/svg">
<g opacity="0.25">
<path d="M7.7891 27.7335H28.2109C28.4459 27.7335 28.6364 27.5431 28.6364 27.3081V23.9045C28.6364 23.6695 28.4459 23.479 28.2109 23.479H7.7891C7.55415 23.479 7.36365 23.6695 7.36365 23.9045V27.3081C7.36365 27.5431 7.55415 27.7335 7.7891 27.7335ZM8.21456 24.3299H27.7855V26.8826H8.21456V24.3299Z" fill="white"/>
<path d="M21.4035 22.6284H24.8072C25.0421 22.6284 25.2326 22.4379 25.2326 22.203V15.8212H26.509C26.6565 15.8212 26.7934 15.7447 26.8709 15.6194C26.9484 15.494 26.9554 15.3373 26.8896 15.2054L23.4859 8.39814C23.3418 8.1098 22.869 8.1098 22.7248 8.39814L19.3211 15.2054C19.2553 15.3373 19.2624 15.494 19.3398 15.6194C19.4173 15.7447 19.5542 15.8212 19.7017 15.8212H20.9781V22.203C20.9781 22.4379 21.1686 22.6284 21.4035 22.6284ZM20.3902 14.9703L23.1054 9.53968L25.8205 14.9703H24.8072C24.5722 14.9703 24.3817 15.1608 24.3817 15.3957V21.7775H21.829V15.3957C21.829 15.1608 21.6385 14.9703 21.4035 14.9703H20.3902Z" fill="white"/>
<path d="M12.0435 22.6284H15.4471C15.6821 22.6284 15.8726 22.4379 15.8726 22.203V15.8212H17.149C17.2965 15.8212 17.4334 15.7447 17.5108 15.6194C17.5883 15.494 17.5954 15.3373 17.5295 15.2054L14.1259 8.39814C13.9817 8.1098 13.5089 8.1098 13.3647 8.39814L9.9611 15.2054C9.89524 15.3373 9.90231 15.494 9.9798 15.6194C10.0573 15.7447 10.1942 15.8212 10.3417 15.8212H11.618V22.203C11.618 22.4379 11.8085 22.6284 12.0435 22.6284ZM11.0301 14.9703L13.7453 9.53968L16.4605 14.9703H15.4471C15.2122 14.9703 15.0217 15.1608 15.0217 15.3957V21.7775H12.469V15.3957C12.469 15.1608 12.2785 14.9703 12.0435 14.9703H11.0301Z" fill="white"/>
<rect x="0.5" y="0.5" width="35" height="35" rx="17.5" stroke="white"/>
</g>
</svg>
